<?xml version="1.0" encoding="UTF-8"?>
<svg id="Layer_2" data-name="Layer 2" xmlns="http://www.w3.org/2000/svg" viewBox="0 0 127.16 62.22">
  <defs>
    <style>
      .cls-1 {
        fill: #181516;
      }
    </style>
  </defs>
  <g id="Layer_1-2" data-name="Layer 1">
    <path class="cls-1" d="M0,35.07c1.55,1,3.4,2.58,7.47,2.58,6.6,0,6.1-9.37,11.94-9.37,4.62,0,5.5,17.34,11.06,17.34,4.57,0,8.19-34.33,15.22-34.33,6.01,0,7.72,45.35,13.86,45.35S66.41,0,74.23,0c7.07,0,8.61,44.21,12.47,44.21s5.94-20.8,11.84-20.8c4.64,0,6.03,13.04,11.32,13.04,3.51,0,5.6-2.82,8.06-5.92,4.57-5.76,8.94-1.94,8.94-1.94,0,0,1.65.36-2.64.36-4.77,0-8.43,11.95-14.84,11.95-9.63,0-7.82-14.52-11.41-14.52s-5.61,24.16-11.91,24.16c-8.47,0-8.27-47.71-12.54-47.71s-5.91,59.4-14.67,59.4c-12.04,0-9.77-47.95-13.99-48.2-3.88-.23-8.2,35.78-15.15,35.78s-7.86-18.72-11.38-18.72c-4.71,0-4.93,10.98-11.3,10.98-4.98,0-7.03-6.99-7.03-6.99Z"/>
  </g>
</svg>