<svg width="468" height="136" viewBox="0 0 468 136" fill="none" xmlns="http://www.w3.org/2000/svg">
<path d="M213.855 0.0352605C217.559 0.844876 218.85 2.4331 221 5.50401C229.549 20.9972 229.327 42.6767 231.3 59.9186C232.585 71.0897 233.971 82.2271 235.941 93.3009C236.087 94.1735 236.232 95.0462 236.382 95.9452C237.263 100.625 238.03 103.481 242 106.504C243.817 100.772 245.4 95.0084 246.832 89.1681C247.159 87.8425 247.487 86.517 247.814 85.1915C248.315 83.1641 248.811 81.1361 249.294 79.1046C254.603 56.8777 254.603 56.8777 263 49.504C266.13 48.5763 268.841 48.7224 272 49.504C281.213 55.4119 283.501 70.5957 286.125 80.5035C287.459 85.3443 289.269 89.2748 292 93.504C299.071 97.0396 308.963 93.723 316 91.504C319.363 90.315 322.694 89.0441 326.024 87.765C331.025 85.8473 336.043 84.1427 341.184 82.629C344.188 81.7434 347.173 80.8217 350.16 79.879C365.58 75.0952 381.04 71.8985 397 69.504C397.859 69.3712 398.718 69.2385 399.604 69.1017C411.46 67.3474 423.353 67.3307 435.312 67.3165C436.077 67.3153 436.841 67.3142 437.628 67.3129C447.793 67.3147 457.865 67.6955 468 68.504C462.859 73.7934 457.245 77.1467 450.778 80.5626C449.203 81.3967 447.643 82.2607 446.086 83.129C434.221 89.0114 420.53 86.7442 407.75 85.7384C377.8 83.8665 350.693 89.763 322.473 99.3712C296.175 107.95 296.175 107.95 286.062 103.004C276.874 95.5029 274.468 86.1955 271.973 74.922C271.799 74.1478 271.626 73.3737 271.448 72.576C271.112 71.0461 270.789 69.513 270.482 67.9769C270.01 65.6355 270.01 65.6355 269 62.504C268.01 62.174 267.02 61.844 266 61.504C262.835 70.3563 260.836 79.4163 258.781 88.5802C253.401 111.688 253.401 111.688 245 117.504C241.787 118.323 239.207 118.359 236 117.504C227.972 111.082 226.45 98.2902 225 88.629C224.838 87.5953 224.677 86.5615 224.51 85.4964C222.757 73.7658 221.6 61.9606 220.482 50.1549C219.282 37.7183 217.573 25.5118 214 13.504C212.039 13.742 212.039 13.742 210 14.504C207.229 20.3449 206.083 26.3511 205 32.6915C204.83 33.6614 204.66 34.6314 204.484 35.6307C202.395 47.7247 200.726 59.871 199.152 72.0413C198.732 75.2792 198.306 78.5164 197.88 81.7535C197.573 84.1124 197.275 86.4723 196.977 88.8324C195.957 96.7229 194.695 104.507 192.992 112.281C192.832 113.02 192.672 113.758 192.506 114.519C190.883 121.628 188.68 127.949 183.312 133.067C178.576 136.011 174.52 136.341 169 135.504C161.299 131.772 158.374 123.433 155.723 115.852C150.277 98.9584 147.98 81.2029 145.482 63.6859C143.938 51.0069 143.938 51.0069 139 39.504C138.01 39.504 137.02 39.504 136 39.504C131.918 46.9394 129.661 54.7061 127.336 62.8219C117.789 96.0586 117.789 96.0586 106.188 104.567C101.509 105.943 97.6855 105.884 93 104.504C87.1714 101.21 82.7422 96.4149 78.5078 91.3009C75.64 87.8833 73.7791 85.7948 69.1008 85.3053C62.8629 85.1788 57.6047 86.5084 51.6875 88.379C35.2255 93.3028 19.0222 95.7334 2 91.504C1.34 90.844 0.68 90.184 0 89.504C0.5576 89.4894 1.1152 89.4748 1.6897 89.4598C22.9085 88.843 39.6487 84.9728 58.5701 75.183C64.2699 72.2561 68.5374 70.9469 75 71.504C80.1864 74.1501 83.4705 78.0062 87 82.504C87.5646 83.2169 88.1292 83.9297 88.7109 84.6642C93 90.2118 93 90.2118 93 92.504C95.9185 93.1965 98.0581 93.6958 101 93.504C107.827 87.7631 109.9 77.9776 112.551 69.7657C112.775 69.0728 112.999 68.3799 113.23 67.666C114.158 64.7911 115.084 61.9159 115.992 59.0345C123.976 33.766 123.976 33.766 133 27.504C136.767 26.598 140.121 27.1564 143.688 28.5665C155.651 38.5903 157.093 57.9809 159.562 72.504C162.966 96.9616 162.966 96.9616 172 119.504C174.063 120.392 174.063 120.392 176 120.504C179.207 116.943 180.296 112.943 181.473 108.406C181.795 107.167 181.795 107.167 182.124 105.903C184.655 95.599 185.804 85.1099 187.026 74.5869C190.806 42.2697 190.806 42.2697 194.125 26.754C194.342 25.7119 194.559 24.6698 194.783 23.5961C197.136 13.3334 201.286 -0.798559 213.855 0.0352605Z" fill="#181516"/>
<path d="M32 88.504C31.01 88.999 31.01 88.999 30 89.504C30 90.164 30 90.824 30 91.504C31.98 91.504 33.96 91.504 36 91.504C36 91.834 36 92.164 36 92.504C24.9497 94.6088 12.9086 94.2144 2 91.504C1.34 90.844 0.68 90.184 0 89.504C0.599495 89.479 1.19899 89.4539 1.81665 89.4281C4.56543 89.3112 7.31395 89.1889 10.0625 89.0665C11.0054 89.0272 11.9484 88.9879 12.9199 88.9474C16.9893 88.763 21.0026 88.5633 25.0312 87.9415C27.8025 87.5331 29.3975 87.5671 32 88.504Z" fill="#181516"/>
<path d="M32 88.504C31.01 88.999 31.01 88.999 30 89.504C30 90.164 30 90.824 30 91.504C31.98 91.504 33.96 91.504 36 91.504C36 91.834 36 92.164 36 92.504C29.0322 93.8312 22.0701 93.5923 15 93.504C15 93.174 15 92.844 15 92.504C20.94 92.009 20.94 92.009 27 91.504C27 91.174 27 90.844 27 90.504C24.03 90.009 24.03 90.009 21 89.504C21 89.174 21 88.844 21 88.504C28.4286 87.2183 28.4286 87.2183 32 88.504Z" fill="#181516"/>
</svg>
